PathFileType	4	(X/Y/Z)	C:/Users/opensim2020/Desktop/walking_exp_matlab/subject01_walking13_straight_01.trc																																																																																																																												
DataRate	CameraRate	NumFrames	NumMarkers	Units	OrigDataRate	OrigDataStartFrame	OrigNumFrames																																																																																																																								
100	100	9	42	mm	100	673	142																																																																																																																								
Frame#	Time	LFHD			RFHD			LBHD			RBHD			C7			T10			CLAV			STRN			RBAK			LSHO			LUPA			LELB			LFRM			LWRA			LWRB			LFIN			RSHO			RUPA			RELB			RFRM			RWRA			RWRB			RFIN			LASI			RASI			LPSI			RPSI			LTHI			LKNE			LTIB			LANK			LHEE			LTOE			RTHI			RKNE			RTIB			RANK			RHEE			RTOE			*39			*40			*41		
		X1	Y1	Z1	X2	Y2	Z2	X3	Y3	Z3	X4	Y4	Z4	X5	Y5	Z5	X6	Y6	Z6	X7	Y7	Z7	X8	Y8	Z8	X9	Y9	Z9	X10	Y10	Z10	X11	Y11	Z11	X12	Y12	Z12	X13	Y13	Z13	X14	Y14	Z14	X15	Y15	Z15	X16	Y16	Z16	X17	Y17	Z17	X18	Y18	Z18	X19	Y19	Z19	X20	Y20	Z20	X21	Y21	Z21	X22	Y22	Z22	X23	Y23	Z23	X24	Y24	Z24	X25	Y25	Z25	X26	Y26	Z26	X27	Y27	Z27	X28	Y28	Z28	X29	Y29	Z29	X30	Y30	Z30	X31	Y31	Z31	X32	Y32	Z32	X33	Y33	Z33	X34	Y34	Z34	X35	Y35	Z35	X36	Y36	Z36	X37	Y37	Z37	X38	Y38	Z38	X39	Y39	Z39	X40	Y40	Z40	X41	Y41	Z41	X42	Y42	Z42
																																																																																																																															
72	0.71	246.34615	1640.9834	-1100.14563	262.57199	1645.33533	-987.22308	126.87564	1607.60559	-1089.29407	141.27977	1611.41614	-969.21112	70.0592	1413.52612	-1040.21619	34.57863	1117.18933	-1020.6156	213.30714	1341.38232	-1045.20386	256.56439	1188.96802	-1047.35925	15.58715	1220.19177	-951.68127	138.66154	1367.11938	-1202.76379	66.41387	1191.05164	-1276.8783	27.4731	1044.39404	-1272.55701	50.47972	929.96075	-1291.22888	115.84026	807.51697	-1268.48657	58.88324	808.21021	-1288.11719	94.61314	733.16071	-1298.55798	156.15103	1377.30347	-891.30768	107.80542	1186.33154	-773.69598	119.71996	1058.06763	-758.21991	216.59457	975.27234	-759.13818	339.23483	940.92688	-820.26251	319.06189	911.19788	-775.43237	395.6618	882.12134	-797.5401	218.60922	914.29291	-1124.7373	202.13019	906.90393	-907.11963	29.17144	926.37933	-1091.69043	19.61039	933.13507	-947.72839	274.71304	604.30865	-1185.81189	309.35541	479.17505	-1162.16455	302.62738	291.40924	-1174.71204	317.01312	71.34632	-1125.90442	272.75104	40.71819	-1074.99353	464.83505	42.20109	-1120.93567	66.17164	589.53503	-857.70734	24.17588	432.77859	-877.58557	-118.99969	326.75085	-877.87781	-255.82001	167.75409	-921.62354	-307.63791	180.1467	-973.02319	-202.6496	33.02612	-948.44965	253.69969	1679.98474	-1010.33862	1973.11072	1024.00464	-3102.01147	2012.49854	1021.98944	-3140.55957
73	0.72	260.15039	1641.33325	-1101.44751	275.84726	1645.81641	-988.4953	140.59439	1608.16467	-1091.37488	154.39891	1612.13684	-971.20313	83.77008	1413.68359	-1042.0813	49.18975	1117.21191	-1021.7475	226.80405	1342.14441	-1046.672	271.15121	1190.01611	-1048.54919	29.40895	1220.01282	-953.87177	152.49924	1366.87122	-1204.53735	82.49878	1189.81079	-1278.54639	44.58612	1042.91321	-1273.73767	67.56346	928.65643	-1292.14868	132.55692	806.06531	-1269.13416	75.61764	806.9187	-1289.00159	111.37758	731.83496	-1299.30396	169.04538	1377.77307	-892.90887	119.09789	1186.57166	-776.07532	131.24962	1058.46399	-760.45862	227.08444	974.67236	-760.57477	349.75821	938.37408	-820.88885	329.12485	909.10486	-775.83746	405.37341	879.00824	-797.58704	233.91219	915.14032	-1125.56287	217.59944	906.8045	-908.78741	44.28738	927.58569	-1091.92944	35.36767	932.81866	-947.664	289.25845	605.19159	-1185.60413	324.82513	480.6058	-1160.16907	315.04294	291.42627	-1175.49109	319.31744	71.7334	-1124.46216	274.2356	41.43584	-1074.78845	467.9949	40.0509	-1119.26038	86.15813	587.78632	-857.48962	46.62325	430.43036	-875.31152	-98.90749	328.36447	-876.17847	-239.9175	173.2215	-918.698	-289.59753	189.82806	-971.38629	-201.28169	32.76276	-949.14392	267.54639	1680.66284	-1011.57379	1973.13452	1023.86194	-3101.95142	2012.54028	1022.05255	-3140.57544
74	0.73	273.83035	1641.87805	-1102.78113	288.9967	1646.48865	-989.78558	154.20911	1608.71008	-1093.1604	167.44696	1612.91357	-973.0332	97.19051	1413.88489	-1043.78284	63.65878	1117.28052	-1023.06799	240.40878	1342.9502	-1047.95728	285.52328	1191.02771	-1049.45703	43.13599	1220.09009	-955.77972	166.48239	1366.88953	-1206.08728	98.87358	1188.90234	-1280.11926	62.07506	1041.7998	-1274.98975	85.25358	927.78687	-1293.24854	150.04308	805.12103	-1269.89148	93.26393	805.95563	-1290.07483	129.03162	730.83795	-1300.15576	181.9447	1378.33032	-894.33826	130.36966	1186.93872	-778.46722	142.21515	1059.00159	-762.5885	237.45355	974.14044	-761.9519	359.82971	935.6261	-821.39935	338.55246	906.99426	-776.28424	414.27939	875.40302	-797.49255	248.62285	916.52106	-1126.56921	232.40907	906.69757	-910.53833	58.71917	928.87134	-1092.13599	50.47082	932.70221	-947.59088	304.94479	606.41217	-1183.66919	338.89761	480.41953	-1158.87244	324.88565	289.86755	-1174.87769	321.9194	71.44407	-1123.90417	274.52609	41.79161	-1075.0083	470.08881	38.88297	-1117.57031	107.02814	585.81415	-857.05054	70.26591	428.12881	-873.59064	-77.67428	330.00458	-874.25031	-223.69217	178.57466	-916.45471	-270.9631	199.80275	-969.07135	-196.29285	35.95558	-949.46082	281.08954	1681.35193	-1013.16492	1972.9967	1023.95496	-3102.16187	2012.55481	1021.94861	-3140.62476
75	0.74	287.29898	1642.60449	-1104.12036	301.9628	1647.46948	-991.013	167.69389	1609.33142	-1094.84619	180.40126	1613.74475	-974.62598	110.33984	1414.2616	-1045.33533	77.72869	1117.77563	-1024.29187	254.00134	1343.78125	-1048.9895	299.69565	1192.09314	-1050.15332	56.63449	1220.53882	-957.4267	180.61722	1367.16553	-1207.47766	115.45004	1188.26978	-1281.4325	79.91364	1041.06946	-1276.33569	103.56421	927.25256	-1294.27368	168.43271	804.61066	-1270.96106	111.64026	805.40442	-1291.27209	147.58615	730.2713	-1300.97327	194.8084	1379.0592	-895.56433	141.46031	1187.38843	-780.70929	153.32391	1059.61987	-764.85266	247.21324	973.48364	-763.3656	369.54486	932.65063	-821.69397	347.3334	904.46204	-776.80829	422.70428	871.54352	-797.02264	262.74219	917.91974	-1127.78662	247.05096	907.01093	-912.23444	72.94955	930.11652	-1092.43005	65.03138	932.87567	-947.64996	320.69394	607.64166	-1182.76709	351.69354	478.92264	-1158.37463	332.87433	288.64096	-1174.23865	322.51648	71.16032	-1123.36096	274.9313	42.15248	-1074.83984	470.78619	37.94067	-1118.06641	128.64661	583.65131	-856.5199	95.22886	425.56818	-872.54272	-55.3117	331.48813	-872.53955	-205.82431	185.24121	-914.38776	-251.60303	210.85463	-966.30524	-189.81432	40.87223	-948.87036	294.31683	1682.21716	-1014.4021	1973.05505	1023.76263	-3102.03101	2012.46802	1021.97699	-3140.61548
76	0.75	300.73419	1643.64087	-1105.06409	314.91364	1648.65076	-992.02631	181.10695	1610.07654	-1096.427	193.23285	1614.67102	-976.18011	123.61887	1414.97351	-1046.88281	91.62572	1118.60657	-1025.70679	267.45895	1344.81238	-1049.76685	313.43527	1193.22266	-1050.60815	69.94274	1221.38708	-958.86255	194.97722	1367.75305	-1208.61646	132.27252	1187.99426	-1282.70056	97.988	1040.59534	-1277.64075	122.3688	927.11884	-1295.47412	187.41438	804.55908	-1271.69885	131.15999	805.25012	-1292.42651	167.0464	730.15637	-1302.00403	207.56863	1379.85046	-896.61273	152.50644	1188.0929	-782.76953	163.96785	1060.36853	-767.09851	256.9072	972.87921	-764.50641	378.59641	929.56696	-821.60852	355.6969	901.84283	-776.87323	430.50494	867.40857	-796.45972	276.45724	919.31128	-1129.24585	260.91843	907.51025	-914.24365	86.82198	931.28015	-1092.77734	79.10469	932.85883	-947.85681	335.21301	608.18494	-1182.35632	363.07916	477.17722	-1158.29773	338.80457	288.03824	-1173.6593	323.14728	71.31856	-1123.005	275.08902	42.43551	-1074.78699	471.69949	37.47636	-1117.37256	151.03975	581.44397	-856.37622	121.22101	423.21661	-871.82239	-31.28914	333.01672	-870.98901	-186.32458	193.20009	-912.86212	-230.06584	222.26184	-963.76141	-181.76436	47.14801	-947.52527	307.00366	1683.27454	-1015.65247	1973.16565	1023.48987	-3101.92822	2012.44592	1022.06628	-3140.64453
77	0.76	313.97968	1644.83569	-1106.33838	327.83194	1649.9115	-992.86481	194.49773	1611.02686	-1097.82654	206.11745	1615.87366	-977.5448	137.1183	1416.08142	-1048.27905	105.2167	1119.79346	-1026.98083	280.84692	1345.92712	-1050.31726	326.14038	1194.18518	-1050.88916	82.81885	1222.75732	-959.90137	209.3978	1368.59167	-1209.59387	149.42297	1188.02881	-1283.62524	116.34589	1040.401	-1279.09375	141.62459	927.18103	-1296.73401	206.97137	804.92871	-1272.05823	151.09831	805.41168	-1293.65845	187.50467	730.59784	-1302.94495	220.30106	1381.08203	-897.41675	163.6358	1188.93091	-784.6673	174.51076	1061.22266	-769.47021	266.06604	972.11304	-765.65375	387.3598	925.9873	-821.55389	363.27167	898.88831	-777.25238	437.55423	862.95233	-795.54065	289.75827	920.63507	-1130.71973	275.61917	909.07104	-915.2431	100.32398	932.32257	-1093.26575	92.70116	932.90143	-948.03827	347.54861	608.27484	-1182.61609	372.68213	476.09192	-1158.80188	342.94513	288.14145	-1172.33496	323.94592	71.75363	-1122.89063	275.11072	42.59223	-1074.63318	472.04379	37.27033	-1117.41724	174.05405	579.53259	-856.33026	148.18095	421.2392	-871.40729	-6.84003	334.77722	-869.5401	-165.41772	201.59123	-911.97467	-207.19543	233.27129	-962.34552	-169.78232	54.41633	-945.69958	319.71686	1684.51501	-1016.60162	1973.08765	1023.43524	-3101.95728	2012.48206	1022.07001	-3140.78833
78	0.77	327.36761	1645.95166	-1107.07336	340.79514	1651.24402	-993.65485	207.75177	1612.26807	-1099.23242	219.10014	1617.2478	-978.67438	150.44193	1417.48132	-1049.63489	118.41365	1121.17615	-1028.4137	294.11502	1347.17664	-1050.69312	339.38684	1195.36963	-1051.00806	95.19981	1224.3324	-960.85211	223.89172	1369.63428	-1210.38696	166.45131	1188.46631	-1284.91492	134.77867	1040.52234	-1280.6626	161.23964	927.5788	-1297.92883	227.32597	805.86206	-1272.6084	171.6916	805.86139	-1294.76172	208.91818	731.54883	-1304.01086	232.80624	1382.36658	-898.1275	174.88925	1190.02454	-786.23718	184.83043	1062.21594	-771.75183	274.51114	971.09198	-766.90204	395.37833	922.47791	-821.43317	370.38034	895.83801	-777.22559	444.31714	858.44476	-794.41681	302.73901	921.95905	-1132.07288	288.97491	910.48102	-916.34045	113.49178	933.20575	-1093.71118	105.97401	932.797	-948.60651	357.20865	607.93445	-1183.55579	380.58572	475.37637	-1159.77722	345.94794	288.39465	-1171.78064	324.09122	72.0084	-1122.70447	275.14099	42.96879	-1074.51331	472.31589	36.90768	-1117.25159	197.26608	577.82294	-856.4762	175.55617	419.59525	-871.26715	19.11676	336.32443	-867.99841	-143.1017	209.39323	-911.92328	-183.69325	242.49429	-963.11316	-154.01761	61.76439	-942.33704	332.43216	1685.72864	-1017.68359	1973.0863	1023.5144	-3101.91602	2012.46313	1021.95001	-3140.73999
79	0.78	340.75101	1647.11768	-1107.77185	353.77835	1652.6687	-994.2536	221.05707	1613.5415	-1100.22314	231.96208	1618.6908	-979.66632	163.84442	1418.81396	-1050.85168	131.4283	1122.60901	-1029.76672	307.2515	1348.4939	-1050.87512	352.38068	1196.5509	-1050.90552	108.13196	1225.79907	-961.89471	238.28528	1370.90967	-1211.08911	183.70255	1189.14099	-1286.01001	153.19185	1040.89392	-1282.15857	181.12973	928.21167	-1299.16272	248.39496	807.38098	-1273.13074	193.00212	806.77643	-1295.88599	231.28389	733.03528	-1304.9978	245.25139	1383.68591	-898.79871	186.01614	1191.25403	-787.53363	194.92659	1063.26013	-773.97528	282.67569	970.04761	-767.92212	403.26782	918.73383	-820.94269	376.85577	892.60126	-776.65863	450.12042	853.63013	-793.49359	315.496	923.20135	-1133.27844	301.55994	911.92316	-917.50525	126.2963	933.88141	-1094.27722	118.71983	932.71643	-949.28345	365.11816	606.9704	-1184.64319	387.2023	474.59674	-1160.9397	348.61798	288.50021	-1172.12598	324.53662	72.07787	-1122.29224	275.40247	43.44574	-1074.21045	472.59821	36.7321	-1117.29065	220.76529	576.77588	-856.41412	203.07184	418.60504	-871.07507	45.9729	337.64603	-866.96442	-120.77074	216.73184	-912.7464	-160.21503	249.7269	-966.28522	-134.38454	69.15923	-938.04639	345.59357	1687.20215	-1018.26025	1973.02161	1023.81781	-3101.98022	2012.45752	1021.961	-3140.69531
80	0.79	354.16513	1648.44885	-1108.33765	366.7222	1654.01111	-994.60846	234.34523	1614.96472	-1101.08716	244.86929	1620.2417	-980.43427	176.97223	1420.31445	-1051.81897	144.20183	1124.12207	-1031.19714	320.28964	1349.86975	-1050.9541	365.16681	1197.80139	-1050.79089	121.01691	1227.19495	-963.28699	252.65891	1372.35693	-1211.57617	200.8936	1190.1449	-1287.31287	171.55771	1041.60815	-1283.74866	201.34207	929.2782	-1300.36926	269.98389	809.34497	-1273.46948	214.95265	808.02942	-1297.11853	254.519	735.05511	-1306.03247	257.43375	1384.9469	-899.4281	197.39236	1192.61182	-788.57288	204.98651	1064.33667	-776.15436	290.54324	968.92255	-768.86371	410.76096	914.76788	-820.13287	383.32193	889.30927	-776.32672	455.59271	848.7431	-792.07391	328.0278	924.2926	-1134.26672	314.81625	913.98633	-917.71436	138.7885	934.55322	-1094.8374	131.97192	932.68201	-949.94373	371.60245	605.41986	-1185.34033	392.95428	473.66205	-1162.07922	352.15793	288.2478	-1172.4054	325.34711	72.40834	-1122.17102	275.79123	43.71959	-1073.87073	473.09824	36.71052	-1117.20825	243.8165	576.81738	-856.31531	230.54546	418.5463	-870.8363	72.96171	339.17337	-866.08539	-97.07186	223.20972	-914.14038	-136.20897	255.16591	-969.57751	-110.08141	75.42953	-933.5545	358.47302	1688.40527	-1019.00171	1973.11841	1023.4986	-3102.07104	2012.61011	1022.07166	-3140.65137
